<?xml version="1.0" encoding="UTF-8"?>
<svg version="1.1" xmlns="http://www.w3.org/2000/svg" width="59" height="57">
<path d="M0 0 C0.95455078 -0.01224609 1.90910156 -0.02449219 2.89257812 -0.03710938 C3.81361328 -0.03904297 4.73464844 -0.04097656 5.68359375 -0.04296875 C6.5233374 -0.04707764 7.36308105 -0.05118652 8.22827148 -0.05541992 C14.99192892 0.64846452 19.28728676 6.70544919 23.625 11.4375 C25.6567762 13.2726527 26.88687 13.80526714 29.5625 14.1875 C29.5625 15.1775 29.5625 16.1675 29.5625 17.1875 C28.675625 17.47625 27.78875 17.765 26.875 18.0625 C24.05867576 19.01898748 21.31166844 20.05548946 18.5625 21.1875 C20.2640625 21.1565625 20.2640625 21.1565625 22 21.125 C25.5625 21.1875 25.5625 21.1875 26.5625 22.1875 C26.85109409 24.49333761 27.06889292 26.80824066 27.25 29.125 C27.35699219 30.39214844 27.46398438 31.65929687 27.57421875 32.96484375 C27.5625 36.1875 27.5625 36.1875 25.5625 38.1875 C25.5625 37.5275 25.5625 36.8675 25.5625 36.1875 C9.0625 36.1875 -7.4375 36.1875 -24.4375 36.1875 C-24.4375 31.2375 -24.4375 26.2875 -24.4375 21.1875 C-11.2375 21.1875 1.9625 21.1875 15.5625 21.1875 C7.527009 17.30652451 7.527009 17.30652451 2.5625 16.1875 C2.2325 14.8675 1.9025 13.5475 1.5625 12.1875 C0.9025 12.1875 0.2425 12.1875 -0.4375 12.1875 C-0.4375 11.5275 -0.4375 10.8675 -0.4375 10.1875 C-4.3975 10.1875 -8.3575 10.1875 -12.4375 10.1875 C-12.4375 10.8475 -12.4375 11.5075 -12.4375 12.1875 C-13.4584375 12.5896875 -13.4584375 12.5896875 -14.5 13 C-21.19447608 15.65266569 -21.19447608 15.65266569 -27.4375 19.1875 C-27.4375 15.51458294 -26.60923673 13.41249749 -24.0625 10.75 C-23.52625 10.234375 -22.99 9.71875 -22.4375 9.1875 C-21.81875 8.3625 -21.2 7.5375 -20.5625 6.6875 C-14.80099686 -0.09073899 -8.24656652 0.00554577 0 0 Z M3.5625 12.1875 C3.5625 12.8475 3.5625 13.5075 3.5625 14.1875 C4.5525 13.8575 5.5425 13.5275 6.5625 13.1875 C5.5725 12.8575 4.5825 12.5275 3.5625 12.1875 Z " fill="#141243" transform="translate(29.4375,-0.1875)"/>
<path d="M0 0 C0.95455078 -0.01224609 1.90910156 -0.02449219 2.89257812 -0.03710938 C3.81361328 -0.03904297 4.73464844 -0.04097656 5.68359375 -0.04296875 C6.5233374 -0.04707764 7.36308105 -0.05118652 8.22827148 -0.05541992 C14.99192892 0.64846452 19.28728676 6.70544919 23.625 11.4375 C25.6567762 13.2726527 26.88687 13.80526714 29.5625 14.1875 C29.5625 15.1775 29.5625 16.1675 29.5625 17.1875 C16.18527171 21.85397499 16.18527171 21.85397499 9.4375 18.75 C8.48875 18.234375 7.54 17.71875 6.5625 17.1875 C4.32724965 16.50113375 4.32724965 16.50113375 2.5625 16.1875 C2.2325 14.8675 1.9025 13.5475 1.5625 12.1875 C0.9025 12.1875 0.2425 12.1875 -0.4375 12.1875 C-0.4375 11.5275 -0.4375 10.8675 -0.4375 10.1875 C-4.3975 10.1875 -8.3575 10.1875 -12.4375 10.1875 C-12.4375 10.8475 -12.4375 11.5075 -12.4375 12.1875 C-13.4584375 12.5896875 -13.4584375 12.5896875 -14.5 13 C-21.19447608 15.65266569 -21.19447608 15.65266569 -27.4375 19.1875 C-27.4375 15.51458294 -26.60923673 13.41249749 -24.0625 10.75 C-23.52625 10.234375 -22.99 9.71875 -22.4375 9.1875 C-21.81875 8.3625 -21.2 7.5375 -20.5625 6.6875 C-14.80099686 -0.09073899 -8.24656652 0.00554577 0 0 Z M3.5625 12.1875 C3.5625 12.8475 3.5625 13.5075 3.5625 14.1875 C4.5525 13.8575 5.5425 13.5275 6.5625 13.1875 C5.5725 12.8575 4.5825 12.5275 3.5625 12.1875 Z " fill="#669F37" transform="translate(29.4375,-0.1875)"/>
<path d="M0 0 C0.80566406 0.00257812 1.61132812 0.00515625 2.44140625 0.0078125 C3.64603516 0.00394531 3.64603516 0.00394531 4.875 0 C7.00390625 0.1328125 7.00390625 0.1328125 9.00390625 1.1328125 C9.00390625 1.7928125 9.00390625 2.4528125 9.00390625 3.1328125 C9.99390625 2.8028125 10.98390625 2.4728125 12.00390625 2.1328125 C14.62890625 2.8203125 14.62890625 2.8203125 17.00390625 4.1328125 C17.62890625 6.1953125 17.62890625 6.1953125 18.00390625 8.1328125 C25.84204741 10.74552622 32.22465726 9.07888327 39.4609375 5.51953125 C42.01980612 4.12414207 44.51833641 2.65449888 47.00390625 1.1328125 C47.00390625 4.91458171 45.9283535 6.90249032 44.00390625 10.1328125 C41.94140625 11.2578125 41.94140625 11.2578125 40.00390625 12.1328125 C39.69453125 12.7721875 39.38515625 13.4115625 39.06640625 14.0703125 C37.58116626 16.95342541 35.90505638 17.74817267 33.00390625 19.1328125 C27.9575389 20.23907321 23.01834582 20.31612046 17.87890625 20.3203125 C17.08097656 20.33255859 16.28304688 20.34480469 15.4609375 20.35742188 C8.16753808 20.37568581 8.16753808 20.37568581 5.00390625 18.1328125 C3.50376158 16.63266783 2.02859044 15.1074805 0.56640625 13.5703125 C-1.81877772 10.95596217 -1.81877772 10.95596217 -4.99609375 10.1328125 C-5.32609375 9.1428125 -5.65609375 8.1528125 -5.99609375 7.1328125 C-8.01117733 6.39957454 -8.01117733 6.39957454 -9.99609375 6.1328125 C-9.99609375 5.1428125 -9.99609375 4.1528125 -9.99609375 3.1328125 C-8.86171875 2.8234375 -7.72734375 2.5140625 -6.55859375 2.1953125 C-3.91841203 1.40788988 -2.51028357 0.16702474 0 0 Z M13.00390625 6.1328125 C14.48890625 7.1228125 14.48890625 7.1228125 16.00390625 8.1328125 C16.00390625 7.4728125 16.00390625 6.8128125 16.00390625 6.1328125 C15.01390625 6.1328125 14.02390625 6.1328125 13.00390625 6.1328125 Z " fill="#67A137" transform="translate(9.99609375,36.8671875)"/>
<path d="M0 0 C10.625 -0.125 10.625 -0.125 14 1 C14 3.64 14 6.28 14 9 C15.65 9 17.3 9 19 9 C19 10.32 19 11.64 19 13 C10.585 13.495 10.585 13.495 2 14 C2 13.34 2 12.68 2 12 C1.34 12 0.68 12 0 12 C0 8.04 0 4.08 0 0 Z " fill="#25206E" transform="translate(33,22)"/>
<path d="M0 0 C2.97 0 5.94 0 9 0 C9.22127098 2.29045368 9.4266504 4.58244764 9.625 6.875 C9.74101563 8.15117187 9.85703125 9.42734375 9.9765625 10.7421875 C9.98429687 11.81726563 9.99203125 12.89234375 10 14 C9.34 14.66 8.68 15.32 8 16 C8 15.34 8 14.68 8 14 C4.04 14 0.08 14 -4 14 C-4 13.67 -4 13.34 -4 13 C-1.03 13 1.94 13 5 13 C5 11.68 5 10.36 5 9 C3.35 9 1.7 9 0 9 C0 6.03 0 3.06 0 0 Z " fill="#231E6B" transform="translate(47,22)"/>
<path d="M0 0 C2.97 0 5.94 0 9 0 C9 3.63 9 7.26 9 11 C8.34 11 7.68 11 7 11 C7 10.34 7 9.68 7 9 C5.35 9 3.7 9 2 9 C2 9.66 2 10.32 2 11 C1.34 11 0.68 11 0 11 C0 7.37 0 3.74 0 0 Z " fill="#CDCCDD" transform="translate(33,23)"/>
<path d="M0 0 C1.32 0 2.64 0 4 0 C4 4.29 4 8.58 4 13 C6.97 13 9.94 13 13 13 C13 13.33 13 13.66 13 14 C8.38 14 3.76 14 -1 14 C-1.09765625 3.94140625 -1.09765625 3.94140625 -1 1 C-0.67 0.67 -0.34 0.34 0 0 Z " fill="#282464" transform="translate(6,22)"/>
<path d="M0 0 C0.66 0 1.32 0 2 0 C2 2.64 2 5.28 2 8 C3.98 8 5.96 8 8 8 C8 5.36 8 2.72 8 0 C8.99 0 9.98 0 11 0 C11.02688151 1.64574566 11.04634123 3.29161413 11.0625 4.9375 C11.07410156 5.85402344 11.08570313 6.77054688 11.09765625 7.71484375 C11 10 11 10 10 11 C6.66381769 11.14257189 3.34024394 11.04228157 0 11 C0 7.37 0 3.74 0 0 Z " fill="#EAEAF1" transform="translate(10,23)"/>
<path d="M0 0 C2.05078125 0.03255208 4.1015625 0.06510417 6.15234375 0.09765625 C6.15234375 1.08765625 6.15234375 2.07765625 6.15234375 3.09765625 C4.17234375 3.09765625 2.19234375 3.09765625 0.15234375 3.09765625 C0.15234375 4.74765625 0.15234375 6.39765625 0.15234375 8.09765625 C2.13234375 8.09765625 4.11234375 8.09765625 6.15234375 8.09765625 C6.15234375 9.08765625 6.15234375 10.07765625 6.15234375 11.09765625 C-0 11.1953125 -0 11.1953125 -1.84765625 11.09765625 C-2.84765625 10.09765625 -2.84765625 10.09765625 -2.98046875 8.06640625 C-2.97789063 7.25171875 -2.9753125 6.43703125 -2.97265625 5.59765625 C-2.97523437 4.78296875 -2.9778125 3.96828125 -2.98046875 3.12890625 C-2.80874235 0.50250245 -2.63734263 0.13939443 0 0 Z " fill="#EFEFF4" transform="translate(24.84765625,22.90234375)"/>
<path d="M0 0 C3.3 0 6.6 0 10 0 C10 0.33 10 0.66 10 1 C7.36 1.33 4.72 1.66 2 2 C2 4.97 2 7.94 2 11 C5.96 11.33 9.92 11.66 14 12 C14 12.66 14 13.32 14 14 C-2.70842825 14.18451025 -2.70842825 14.18451025 -11 13 C-11 12.67 -11 12.34 -11 12 C-7.7 11.67 -4.4 11.34 -1 11 C-0.67 7.37 -0.34 3.74 0 0 Z " fill="#171365" transform="translate(21,22)"/>
<path d="M0 0 C0.66 0 1.32 0 2 0 C2 3.96 2 7.92 2 12 C1.34 12 0.68 12 0 12 C0 11.01 0 10.02 0 9 C-1.98 9 -3.96 9 -6 9 C-6 7.35 -6 5.7 -6 4 C-4.02 4 -2.04 4 0 4 C0 2.68 0 1.36 0 0 Z " fill="#28236F" transform="translate(31,22)"/>
<path d="M0 0 C1.98 0 3.96 0 6 0 C6 2.97 6 5.94 6 9 C4.02 9 2.04 9 0 9 C0 6.03 0 3.06 0 0 Z " fill="#342E78" transform="translate(12,22)"/>
<path d="M0 0 C0.99 0 1.98 0 3 0 C3 2.64 3 5.28 3 8 C4.65 8 6.3 8 8 8 C8 8.99 8 9.98 8 11 C5.36 11 2.72 11 0 11 C0 7.37 0 3.74 0 0 Z " fill="#EBEBF2" transform="translate(44,23)"/>
<path d="M0 0 C0.66 0.66 1.32 1.32 2 2 C0.68 4.31 -0.64 6.62 -2 9 C-3.65 7.35 -5.3 5.7 -7 4 C-5.824375 3.566875 -5.824375 3.566875 -4.625 3.125 C-1.90328368 2.15087746 -1.90328368 2.15087746 0 0 Z " fill="#466B25" transform="translate(56,38)"/>
<path d="M0 0 C1.65 0 3.3 0 5 0 C5 0.99 5 1.98 5 3 C5.66 3.33 6.32 3.66 7 4 C4.69 4 2.38 4 0 4 C0 2.68 0 1.36 0 0 Z " fill="#302B76" transform="translate(35,32)"/>
<path d="M0 0 C0.33 0.66 0.66 1.32 1 2 C3.52733235 2.65555119 3.52733235 2.65555119 6 3 C6.33 3.99 6.66 4.98 7 6 C3.5625 5.1875 3.5625 5.1875 0 4 C-0.33 3.01 -0.66 2.02 -1 1 C-0.67 0.67 -0.34 0.34 0 0 Z " fill="#31541A" transform="translate(32,12)"/>
<path d="" fill="#000000" transform="translate(0,0)"/>
<path d="" fill="#000000" transform="translate(0,0)"/>
<path d="" fill="#000000" transform="translate(0,0)"/>
<path d="" fill="#000000" transform="translate(0,0)"/>
<path d="" fill="#000000" transform="translate(0,0)"/>
<path d="" fill="#000000" transform="translate(0,0)"/>
<path d="" fill="#000000" transform="translate(0,0)"/>
<path d="" fill="#000000" transform="translate(0,0)"/>
<path d="" fill="#000000" transform="translate(0,0)"/>
<path d="" fill="#000000" transform="translate(0,0)"/>
<path d="" fill="#000000" transform="translate(0,0)"/>
<path d="" fill="#000000" transform="translate(0,0)"/>
<path d="" fill="#000000" transform="translate(0,0)"/>
<path d="" fill="#000000" transform="translate(0,0)"/>
<path d="" fill="#000000" transform="translate(0,0)"/>
<path d="" fill="#000000" transform="translate(0,0)"/>
<path d="" fill="#000000" transform="translate(0,0)"/>
<path d="" fill="#000000" transform="translate(0,0)"/>
<path d="" fill="#000000" transform="translate(0,0)"/>
<path d="" fill="#000000" transform="translate(0,0)"/>
<path d="" fill="#000000" transform="translate(0,0)"/>
<path d="" fill="#000000" transform="translate(0,0)"/>
<path d="" fill="#000000" transform="translate(0,0)"/>
<path d="" fill="#000000" transform="translate(0,0)"/>
<path d="" fill="#000000" transform="translate(0,0)"/>
<path d="" fill="#000000" transform="translate(0,0)"/>
<path d="" fill="#000000" transform="translate(0,0)"/>
<path d="" fill="#000000" transform="translate(0,0)"/>
<path d="" fill="#000000" transform="translate(0,0)"/>
<path d="" fill="#000000" transform="translate(0,0)"/>
</svg>
